<svg xmlns="http://www.w3.org/2000/svg" version="1.1" xmlns:xlink="http://www.w3.org/1999/xlink" xmlns:svgjs="http://svgjs.dev/svgjs" width="180" height="80" viewBox="0 0 1000 280"><g transform="matrix(1,0,0,1,-0.6060606060606233,-0.5270591706933772)"><svg viewBox="0 0 396 111" data-background-color="#ffffff" preserveAspectRatio="xMidYMid meet" height="190" width="1000" xmlns="http://www.w3.org/2000/svg" xmlns:xlink="http://www.w3.org/1999/xlink"><g id="tight-bounds" transform="matrix(1,0,0,1,0.2400000000000091,0.20894131409630745)"><svg viewBox="0 0 395.52 110.58211737180737" height="110.58211737180737" width="395.52"><g><svg viewBox="0 0 395.52 110.58211737180737" height="110.58211737180737" width="395.52"><g><svg viewBox="0 0 395.52 110.58211737180737" height="110.58211737180737" width="395.52"><g><svg viewBox="0 0 395.52 110.58211737180737" height="110.58211737180737" width="395.52"><g><svg viewBox="0 0 395.52 110.58211737180737" height="110.58211737180737" width="395.52"><g id="textblocktransform"><svg viewBox="0 0 395.52 110.58211737180737" height="110.58211737180737" width="395.52" id="textblock"><g><svg viewBox="0 0 395.52 110.58211737180737" height="110.58211737180737" width="395.52"><g transform="matrix(1,0,0,1,0,0)"><svg width="395.52" viewBox="0.98 -35.01 125.21 35.01" height="110.58211737180737" data-palette-color="#1f3bb3"><path d="M33.13-35.01L33.13-8.91Q33.13-7.01 32.47-5.37 31.81-3.74 30.63-2.54 29.44-1.34 27.81-0.67 26.17 0 24.24 0L24.24 0 0.98 0 0.98-6.35 24.24-6.35Q25.42-6.35 26.07-7.02 26.73-7.69 26.73-8.91L26.73-8.91 26.73-35.01 33.13-35.01ZM46.8-35.01L46.8 0 40.45 0 40.45-35.01 46.8-35.01ZM85.27-6.35L85.27 0 53.12 0 53.12-11.74Q53.12-12.65 53.33-13.66 53.54-14.67 53.97-15.67 54.41-16.67 55.11-17.58 55.81-18.48 56.79-19.18 57.78-19.87 59.08-20.29 60.37-20.7 62.01-20.7L62.01-20.7 76.31-20.7Q77.61-20.7 78.23-21.35 78.85-22 78.85-23.24L78.85-23.24 78.85-26.05Q78.85-27.34 78.22-28 77.58-28.66 76.36-28.66L76.36-28.66 55.98-28.66 55.98-35.01 76.36-35.01Q77.97-35.01 79.27-34.59 80.56-34.18 81.55-33.48 82.54-32.79 83.25-31.88 83.95-30.98 84.41-29.99 84.86-29 85.07-27.99 85.27-26.98 85.27-26.1L85.27-26.1 85.27-23.24Q85.27-20.78 84.38-19.08 83.49-17.38 82.15-16.32 80.81-15.26 79.26-14.78 77.7-14.31 76.36-14.31L76.36-14.31 62.01-14.31Q61.23-14.31 60.76-14.09 60.3-13.87 60.04-13.5 59.79-13.13 59.66-12.67 59.54-12.21 59.47-11.74L59.47-11.74 59.47-6.35 85.27-6.35ZM126.19-31.81L126.19 0 119.84 0 119.84-8.59 97.53-8.59 97.53 0 91.18 0 91.18-17.5Q91.18-21.34 92.5-24.56 93.82-27.78 96.16-30.1 98.5-32.42 101.7-33.72 104.9-35.01 108.68-35.01L108.68-35.01 122.99-35.01Q123.65-35.01 124.24-34.77 124.82-34.52 125.26-34.08 125.7-33.64 125.94-33.06 126.19-32.47 126.19-31.81L126.19-31.81ZM97.53-17.5L97.53-14.94 119.84-14.94 119.84-28.66 108.68-28.66Q108.39-28.66 107.45-28.58 106.51-28.49 105.28-28.15 104.05-27.81 102.68-27.1 101.31-26.39 100.16-25.15 99.02-23.9 98.27-22.03 97.53-20.17 97.53-17.5L97.53-17.5Z" opacity="1" transform="matrix(1,0,0,1,0,0)" fill="#1f3bb3" class="wordmark-text-0" data-fill-palette-color="primary" id="text-0"></path></svg></g></svg></g></svg></g></svg></g></svg></g></svg></g></svg></g><defs></defs></svg><rect width="395.52" height="110.58211737180737" fill="none" stroke="none" visibility="hidden"></rect></g></svg></g></svg>